# xmcd CD database file
#
# Track frame offsets:
#	160
#	14862
#	27177
#	38922
#	56467
#	69675
#	87847
#	100455
#	113550
#	124635
#	139707
#	153477
#	171797
#	184682
#
# Disc length: 2641 seconds
#
# Revision: 0
# Processed by: cddbd v1.5PL3 Copyright (c) Steve Scherf et al.
# Submitted via: CDex 1.50
#
DISCID=ba0a4f0e
DTITLE=Reg Mctaggart - I Only See You
DYEAR=1900
DGENRE=Country
TTITLE0=Silence Says It All
TTITLE1=Mama's Rocking Chair
TTITLE2=Heaven On My Mind
TTITLE3=I Only See You
TTITLE4=Our Love
TTITLE5=Anna
TTITLE6=I've Got My Baby On My Mind
TTITLE7=The Best Has Yet To Come
TTITLE8=Linda On My Mind
TTITLE9=Fly Like A Bird
TTITLE10=Love Just Broke Even
TTITLE11=A Bad Way Of Saying Goodbye
TTITLE12=Crazy Arms
TTITLE13=If I Fall
EXTD=
EXTT0=
EXTT1=
EXTT2=
EXTT3=
EXTT4=
EXTT5=
EXTT6=
EXTT7=
EXTT8=
EXTT9=
EXTT10=
EXTT11=
EXTT12=
EXTT13=
PLAYORDER=
